# xmcd
#
# Track frame offsets: 
#        150
#        17902
#        33297
#        46890
#        60630
#        72130
#        80382
#        92380
#        103622
#        119085
#
# Disc length: 1751 seconds
#
# Revision: 0
# Processed by: cddbd v1.4PL0 Copyright (c) Steve Scherf et al.
# Submitted via: ExactAudioCopy v0.90a11
#
DISCID=7906d50a
DTITLE=Walter Brennan - Old Shep
DYEAR=1900
DGENRE=
TTITLE0=Old Shep
TTITLE1=Life Gets Tee-Jus, Don't It
TTITLE2=Shiftin' Whisperin' Sands - Part 1
TTITLE3=Shiftin' Whisperin' Sands - Part 2
TTITLE4=Back To The Farm
TTITLE5=I Believe
TTITLE6=Six Feet Away
TTITLE7=Tribute To A Dog
TTITLE8=Dutchman's Gold
TTITLE9=Suppertime
EXTD=
EXTT0=
EXTT1=
EXTT2=
EXTT3=
EXTT4=
EXTT5=
EXTT6=
EXTT7=
EXTT8=
EXTT9=
PLAYORDER=
